<svg width="50" height="50" viewBox="0 0 50 50" fill="none" xmlns="http://www.w3.org/2000/svg">
<mask id="mask0_0_1243" style="mask-type:alpha" maskUnits="userSpaceOnUse" x="16" y="16" width="20" height="21">
<path fill-rule="evenodd" clip-rule="evenodd" d="M16 16.212V36.8498H25.6758H35.3516V16.212L16 16.212Z" fill="white"/>
</mask>
<g mask="url(#mask0_0_1243)">
<path fill-rule="evenodd" clip-rule="evenodd" d="M25.0399 36.8498C20.2869 36.8498 17.8029 34.5498 16.1709 31.8148C15.8289 31.2428 16.0159 30.5028 16.5879 30.1608C17.1609 29.8188 17.9009 30.0058 18.2429 30.5778C19.4939 32.6738 21.5979 34.0568 24.0149 34.3708C28.3349 34.9278 32.3099 31.8728 32.8719 27.5498C33.4329 23.2278 30.3739 19.2548 26.0519 18.6928C24.4039 18.4788 22.7639 18.7798 21.3059 19.5598C20.7199 19.8748 19.9879 19.6538 19.6729 19.0668C19.3589 18.4788 19.5789 17.7478 20.1669 17.4328C22.0699 16.4128 24.2139 16.0198 26.3629 16.2998C32.0039 17.0328 35.9979 22.2188 35.2649 27.8608C34.5899 33.0528 30.1429 36.8498 25.0399 36.8498Z" fill="#333333"/>
</g>
<path fill-rule="evenodd" clip-rule="evenodd" d="M23.4829 25.7615C23.7899 26.0625 24.1359 26.2155 24.5109 26.2155H24.5249C24.9149 26.2115 25.2429 26.0595 25.5569 25.7375C25.8629 25.4255 26.0159 25.0735 26.0119 24.6955C26.0079 24.3055 25.8559 23.9765 25.5339 23.6625L20.5069 18.6295L20.5599 18.5755L20.3969 18.4135L25.5379 13.2755C25.8419 12.9645 25.9949 12.6145 25.9909 12.2335C25.9869 11.8445 25.8349 11.5165 25.5139 11.2015C24.9749 10.8955 24.0239 10.8975 23.4409 11.4915L16.3269 18.6495L23.4829 25.7615Z" fill="#333333"/>
</svg>
